#!OML:ASF H:\Dans Jumps\Project 1\Capture day 1\Session 1\subject.ASF
:FULLY-SPECIFIED
:DEGREES
389
root 0.148796 15.9031 -2.503 -5.01166 0.134051 -1.34235
lowerback 3.3522 -1.63626 -1.88632
upperback 2.39416 -2.23553 2.12373
thorax 0.738017 -1.1606 3.29659
lowerneck -12.4957 1.11039 -1.12805
upperneck 37.1725 1.79286 0.408045
head 15.0015 0.643808 0.655651
rclavicle 2.65999e-014 -9.93923e-015
rhumerus -25.4686 -13.0868 -81.8288
rradius 25.8422
rwrist 35.1738
rhand -25.4271 -28.3943
rfingers 7.12502
rthumb 1.09907 -58.3713
lclavicle 2.65999e-014 -9.93923e-015
lhumerus -13.7374 -1.61879 87.6804
lradius 18.5469
lwrist 10.7448
lhand -25.6922 -10.1628
lfingers 7.12502
lthumb 0.843031 19.8153
rfemur -24.0507 -7.1207 19.5487
rtibia 59.7149
rfoot -27.1074 -5.24839
rtoes 0.00379678
lfemur -23.6134 8.4385 -15.8473
ltibia 58.3803
lfoot -24.4431 7.89228
ltoes -12.7999
390
root 0.152987 15.9749 -2.47801 -4.78935 0.194341 -1.31204
lowerback 3.21101 -1.67118 -1.79337
upperback 2.43758 -2.27877 2.08095
thorax 0.858974 -1.18281 3.1954
lowerneck -12.3543 1.10764 -1.13748
upperneck 37.2694 1.79692 0.386113
head 15.0155 0.640184 0.648174
rclavicle -1.98785e-014 6.75868e-015
rhumerus -25.3759 -13.2305 -81.8416
rradius 25.8802
rwrist 35.5741
rhand -25.4106 -28.4421
rfingers 7.12502
rthumb 1.11498 -58.419
lclavicle -1.98785e-014 6.75868e-015
lhumerus -13.9564 -0.997385 87.6701
lradius 18.3983
lwrist 9.36461
lhand -25.8702 -10.2309
lfingers 7.12502
lthumb 0.671112 19.7478
rfemur -23.6553 -6.83062 19.5492
rtibia 58.7292
rfoot -26.7319 -5.3939
rtoes 0.353851
lfemur -23.2184 8.16841 -15.9822
ltibia 57.3375
lfoot -24.0437 7.92976
ltoes -12.3022
391
root 0.15804 16.0542 -2.45606 -4.57394 0.245024 -1.26592
lowerback 3.10689 -1.70105 -1.7181
upperback 2.48163 -2.3162 2.03948
thorax 0.96008 -1.20194 3.10656
lowerneck -12.1959 1.10357 -1.13861
upperneck 37.3268 1.80361 0.34351
head 15.0069 0.636548 0.630425
rclavicle -5.41937e-014 2.22639e-014
rhumerus -25.3399 -13.4759 -81.8056
rradius 25.9477
rwrist 35.5291
rhand -25.4346 -28.5195
rfingers 7.12502
rthumb 1.0918 -58.4964
lclavicle -5.41937e-014 2.22639e-014
lhumerus -14.1826 -0.11451 87.633
lradius 18.2524
lwrist 8.26151
lhand -26.2067 -10.2634
lfingers 7.12502
lthumb 0.34607 19.716
rfemur -23.1909 -6.52762 19.5248
rtibia 57.6017
rfoot -26.2954 -5.48389
rtoes 0.806971
lfemur -22.7536 7.93668 -16.1236
ltibia 56.1512
lfoot -23.5942 7.86025
ltoes -11.7599
392
root 0.164027 16.139 -2.43644 -4.3489 0.282064 -1.21179
lowerback 3.01715 -1.72066 -1.65076
upperback 2.51926 -2.34029 2.00051
thorax 1.046 -1.21413 3.0251
lowerneck -12.0222 1.09256 -1.13144
upperneck 37.3519 1.80147 0.288746
head 14.9793 0.629185 0.604279
rclavicle 3.70236e-015 -1.98785e-014
rhumerus -25.3759 -13.7785 -81.7223
rradius 26.05
rwrist 35.1299
rhand -25.4888 -28.6012
rfingers 7.12502
rthumb 1.03947 -58.5784
lclavicle 3.70236e-015 -1.98785e-014
lhumerus -14.4023 0.904962 87.5863
lradius 18.0999
lwrist 7.6243
lhand -26.6221 -10.3426
lfingers 7.12502
lthumb -0.0551346 19.6371
rfemur -22.6838 -6.22322 19.4844
rtibia 56.3528
rfoot -25.8095 -5.51847
rtoes 1.33803
lfemur -22.2444 7.75396 -16.264
ltibia 54.8457
lfoot -23.1243 7.68252
ltoes -11.1286
393
root 0.170557 16.2282 -2.41864 -4.09849 0.3163 -1.15895
lowerback 2.92407 -1.73274 -1.58815
upperback 2.54569 -2.35446 1.96842
thorax 1.12205 -1.22113 2.95331
lowerneck -11.84 1.07299 -1.12433
upperneck 37.3456 1.78559 0.235147
head 14.9347 0.616635 0.576186
rclavicle 9.06955e-016 5.1684e-015
rhumerus -25.4801 -14.1047 -81.5903
rradius 26.176
rwrist 34.5359
rhand -25.5689 -28.6395
rfingers 7.12502
rthumb 0.962073 -58.6171
lclavicle 9.06955e-016 5.1684e-015
lhumerus -14.6038 1.97492 87.5411
lradius 17.9501
lwrist 7.5412
lhand -27.0149 -10.423
lfingers 7.12502
lthumb -0.434454 19.5563
rfemur -22.156 -5.9354 19.4397
rtibia 55.0003
rfoot -25.285 -5.49951
rtoes 1.93084
lfemur -21.7157 7.61393 -16.3958
ltibia 53.439
lfoot -22.6391 7.42128
ltoes -10.4456
394
root 0.177202 16.3209 -2.40218 -3.80335 0.348904 -1.11511
lowerback 2.80289 -1.73652 -1.52625
upperback 2.55675 -2.35744 1.94604
thorax 1.19775 -1.22238 2.8911
lowerneck -11.6685 1.04144 -1.12544
upperneck 37.3197 1.74931 0.194428
head 14.8831 0.596289 0.55181
rclavicle 1.77664e-014 -7.55382e-015
rhumerus -25.6425 -14.449 -81.4042
rradius 26.2998
rwrist 33.9248
rhand -25.6418 -28.6123
rfingers 7.12502
rthumb 0.891753 -58.5902
lclavicle 1.77664e-014 -7.55382e-015
lhumerus -14.7837 3.02011 87.5046
lradius 17.8099
lwrist 7.98219
lhand -27.3517 -10.5584
lfingers 7.12502
lthumb -0.75976 19.42
rfemur -21.6386 -5.66955 19.4039
rtibia 53.5625
rfoot -24.7201 -5.44406
rtoes 2.55486
lfemur -21.1961 7.51229 -16.5132
ltibia 51.9498
lfoot -22.1474 7.08831
ltoes -9.70534
395
root 0.183588 16.4162 -2.38667 -3.44975 0.390372 -1.08307
lowerback 2.63362 -1.73463 -1.46235
upperback 2.5496 -2.35261 1.9314
thorax 1.2814 -1.21959 2.83436
lowerneck -11.5196 0.997578 -1.13027
upperneck 37.2833 1.69123 0.166651
head 14.8317 0.568016 0.530382
rclavicle -1.85864e-014 3.97569e-015
rhumerus -25.8474 -14.7985 -81.1716
rradius 26.3949
rwrist 33.402
rhand -25.7058 -28.5014
rfingers 7.12502
rthumb 0.8299 -58.4795
lclavicle -1.85864e-014 3.97569e-015
lhumerus -14.9382 3.97392 87.4748
lradius 17.6801
lwrist 8.8188
lhand -27.5641 -10.7452
lfingers 7.12502
lthumb -0.964872 19.2323
rfemur -21.1546 -5.43842 19.3819
rtibia 52.0581
rfoot -24.1219 -5.36207
rtoes 3.19131
lfemur -20.7105 7.43442 -16.6181
ltibia 50.3951
lfoot -21.6447 6.71775
ltoes -8.94108
396
root 0.189402 16.5123 -2.37201 -3.03136 0.438343 -1.06905
lowerback 2.40708 -1.72753 -1.39081
upperback 2.52409 -2.3406 1.92476
thorax 1.37788 -1.21302 2.77996
lowerneck -11.3933 0.944799 -1.14594
upperneck 37.2341 1.61506 0.161069
head 14.7792 0.533638 0.517583
rclavicle -1.60022e-014 9.93923e-015
rhumerus -26.0791 -15.1202 -80.9108
rradius 26.4549
rwrist 32.999
rhand -25.7764 -28.3295
rfingers 7.12502
rthumb 0.761751 -58.3078
lclavicle -1.60022e-014 9.93923e-015
lhumerus -15.0727 4.80427 87.4467
lradius 17.5644
lwrist 9.83627
lhand -27.6383 -10.9119
lfingers 7.12502
lthumb -1.03655 19.0653
rfemur -20.7255 -5.23744 19.3845
rtibia 50.5093
rfoot -23.4955 -5.27376
rtoes 3.8249
lfemur -20.2786 7.37448 -16.706
ltibia 48.7962
lfoot -21.1287 6.34382
ltoes -8.19788
397
root 0.194679 16.6079 -2.35811 -2.55343 0.502867 -1.06625
lowerback 2.12883 -1.72007 -1.31601
upperback 2.4798 -2.32806 1.92182
thorax 1.4841 -1.20601 2.72626
lowerneck -11.3041 0.884172 -1.18654
upperneck 37.1891 1.52132 0.192372
head 14.7369 0.493081 0.522311
rclavicle -2.41026e-015 8.74653e-015
rhumerus -26.3303 -15.3781 -80.6397
rradius 26.4785
rwrist 32.7179
rhand -25.8601 -28.118
rfingers 7.12502
rthumb 0.680835 -58.0967
lclavicle -2.41026e-015 8.74653e-015
lhumerus -15.2066 5.45931 87.4187
lradius 17.4717
lwrist 10.8301
lhand -27.6019 -11.051
lfingers 7.12502
lthumb -1.00146 18.9263
rfemur -20.3557 -5.07659 19.4015
rtibia 48.938
rfoot -22.8536 -5.1812
rtoes 4.46514
lfemur -19.906 7.31826 -16.787
ltibia 47.172
lfoot -20.5988 5.97995
ltoes -7.49317
398
root 0.199491 16.7014 -2.34496 -2.03163 0.585622 -1.06753
lowerback 1.81752 -1.71431 -1.24235
upperback 2.41641 -2.31795 1.91947
thorax 1.58954 -1.19997 2.67319
lowerneck -11.2512 0.821879 -1.25334
upperneck 37.1598 1.41872 0.263266
head 14.71 0.450148 0.547252
rclavicle -4.37078e-014 1.94809e-014
rhumerus -26.5937 -15.5629 -80.3656
rradius 26.4582
rwrist 32.5683
rhand -25.938 -27.9315
rfingers 7.12502
rthumb 0.60562 -57.9104
lclavicle -4.37078e-014 1.94809e-014
lhumerus -15.3562 5.88832 87.3947
lradius 17.4034
lwrist 11.6291
lhand -27.4839 -11.0865
lfingers 7.12502
lthumb -0.887425 18.8914
rfemur -20.0389 -4.95275 19.4239
rtibia 47.3674
rfoot -22.2102 -5.0876
rtoes 5.11726
lfemur -19.5862 7.25699 -16.8678
ltibia 45.5402
lfoot -20.0562 5.63417
ltoes -6.84782
399
root 0.204032 16.7917 -2.33265 -1.48842 0.684001 -1.06836
lowerback 1.49772 -1.71155 -1.17316
upperback 2.33964 -2.31216 1.91705
thorax 1.68652 -1.19591 2.62266
lowerneck -11.2177 0.761613 -1.33502
upperneck 37.1287 1.31528 0.357302
head 14.6867 0.407859 0.584475
rclavicle -1.89591e-014 3.18055e-014
rhumerus -26.8666 -15.6436 -80.102
rradius 26.4211
rwrist 32.5171
rhand -25.9744 -27.821
rfingers 7.12502
rthumb 0.570471 -57.8
lclavicle -1.89591e-014 3.18055e-014
lhumerus -15.545 6.06774 87.3815
lradius 17.3769
lwrist 12.1263
lhand -27.3487 -10.9814
lfingers 7.12502
lthumb -0.756854 18.997
rfemur -19.7593 -4.86211 19.4436
rtibia 45.8166
rfoot -21.5781 -4.98702
rtoes 5.7997
lfemur -19.3003 7.18645 -16.9493
ltibia 43.9135
lfoot -19.5082 5.29907
ltoes -6.25902
400
root 0.208637 16.8778 -2.321 -0.947564 0.795253 -1.05952
lowerback 1.19384 -1.71257 -1.11523
upperback 2.25373 -2.31176 1.91266
thorax 1.76598 -1.19445 2.57716
lowerneck -11.2034 0.706475 -1.42053
upperneck 37.0978 1.2188 0.457827
head 14.6679 0.368845 0.626287
rclavicle 1.12313e-014 -6.75868e-015
rhumerus -27.1476 -15.6461 -79.839
rradius 26.353
rwrist 32.5994
rhand -25.9891 -27.7425
rfingers 7.12502
rthumb 0.556267 -57.7215
lclavicle 1.12313e-014 -6.75868e-015
lhumerus -15.7839 5.98768 87.3855
lradius 17.3915
lwrist 12.2864
lhand -27.2463 -10.8491
lfingers 7.12502
lthumb -0.657979 19.1296
rfemur -19.4977 -4.80455 19.4475
rtibia 44.3022
rfoot -20.9655 -4.87831
rtoes 6.49129
lfemur -19.023 7.10432 -17.0371
ltibia 42.3012
lfoot -18.9675 4.94795
ltoes -5.67295
401
root 0.213421 16.9592 -2.31016 -0.421309 0.907612 -1.04034
lowerback 0.911992 -1.71637 -1.06897
upperback 2.16554 -2.31536 1.90787
thorax 1.83149 -1.19505 2.53857
lowerneck -11.1808 0.65902 -1.50075
upperneck 37.0383 1.13858 0.541217
head 14.6339 0.335521 0.662237
rclavicle -9.31803e-015 -3.18055e-014
rhumerus -27.4264 -15.5842 -79.5767
rradius 26.2566
rwrist 32.7886
rhand -25.9917 -27.6757
rfingers 7.12502
rthumb 0.55372 -57.6547
lclavicle -9.31803e-015 -3.18055e-014
lhumerus -16.0711 5.66352 87.4109
lradius 17.4593
lwrist 12.1624
lhand -27.1813 -10.657
lfingers 7.12502
lthumb -0.595237 19.3219
rfemur -19.2472 -4.76876 19.4347
rtibia 42.8357
rfoot -20.3759 -4.75721
rtoes 7.19503
lfemur -18.7429 7.02021 -17.1281
ltibia 40.7118
lfoot -18.4414 4.56857
ltoes -5.05166
402
root 0.218648 17.0354 -2.29981 0.0791064 1.01131 -1.0099
lowerback 0.66622 -1.72016 -1.03711
upperback 2.07727 -2.3192 1.90581
thorax 1.87745 -1.1959 2.51206
lowerneck -11.1691 0.623083 -1.56452
upperneck 36.966 1.0827 0.594445
head 14.5966 0.310986 0.686453
rclavicle 5.889e-015 6.75868e-015
rhumerus -27.6934 -15.4754 -79.3092
rradius 26.1267
rwrist 33.0447
rhand -25.9945 -27.5969
rfingers 7.12502
rthumb 0.55109 -57.576
lclavicle 5.889e-015 6.75868e-015
lhumerus -16.4048 5.13472 87.4629
lradius 17.5824
lwrist 11.8389
lhand -27.1457 -10.4644
lfingers 7.12502
lthumb -0.560802 19.5146
rfemur -18.9985 -4.748 19.4031
rtibia 41.4248
rfoot -19.811 -4.62029
rtoes 7.89421
lfemur -18.4474 6.94151 -17.2216
ltibia 39.1532
lfoot -17.934 4.15601
ltoes -4.36198
